<svg width="36" height="30" viewBox="0 0 36 30" fill="none" xmlns="http://www.w3.org/2000/svg">
<path d="M25.7609 0C22.2652 0 19.2522 1.66141 17.6087 4.41359C15.9652 1.66141 12.9522 0 9.45652 0C6.94942 0.00302034 4.54587 1.0003 2.77309 2.77309C1.0003 4.54587 0.00302034 6.94942 0 9.45652C0 14.1179 2.93478 18.9897 8.70652 23.9331C11.3715 26.2009 14.2489 28.2064 17.2989 29.9217C17.3941 29.9731 17.5005 30 17.6087 30C17.7168 30 17.8233 29.9731 17.9185 29.9217C20.9685 28.2064 23.8459 26.2009 26.5109 23.9331C32.2826 18.9897 35.2174 14.1179 35.2174 9.45652C35.2144 6.94942 34.2171 4.54587 32.4443 2.77309C30.6715 1.0003 28.268 0.00302034 25.7609 0ZM17.6087 28.6011C15.3261 27.3033 1.30435 18.9244 1.30435 9.45652C1.30694 7.29522 2.16665 5.22319 3.69492 3.69492C5.22319 2.16665 7.29522 1.30694 9.45652 1.30435C12.8984 1.30435 15.7908 3.14837 17.0054 6.11576C17.0546 6.23537 17.1381 6.33768 17.2456 6.40968C17.353 6.48169 17.4794 6.52013 17.6087 6.52013C17.738 6.52013 17.8644 6.48169 17.9718 6.40968C18.0792 6.33768 18.1628 6.23537 18.212 6.11576C19.4266 3.14837 22.319 1.30435 25.7609 1.30435C27.9222 1.30694 29.9942 2.16665 31.5225 3.69492C33.0507 5.22319 33.9104 7.29522 33.913 9.45652C33.913 18.913 19.8913 27.3033 17.6087 28.6011Z" fill="#D5FF03"/>
</svg>
