<svg width="416" height="350" viewBox="0 0 416 350" fill="none" xmlns="http://www.w3.org/2000/svg">
<path d="M170.704 232.065L170.704 136.956L147.923 136.956L89.4405 200.951L89.4405 136.956L66.7979 136.956L66.7979 232.065L89.4405 232.065L147.923 168.478L147.923 232.065H170.704Z" fill="#181818"/>
<path d="M296.874 232.272V209.239H383.669C392.425 209.239 399.917 212.536 406.146 219.131C412.465 225.631 415.624 233.497 415.624 242.728C415.624 251.866 412.465 259.732 406.146 266.326C399.917 272.826 392.425 276.076 383.669 276.076H318.945V308.152H296.874V252.902H383.669C386.286 252.902 388.543 251.913 390.439 249.935C392.425 247.862 393.418 245.413 393.418 242.587C393.418 239.761 392.425 237.359 390.439 235.381C388.543 233.308 386.286 232.272 383.669 232.272H296.874Z" fill="#181818"/>
<path d="M254.645 209.239V231.918H212.43V306.631H190.654V231.918H148.438V209.239H254.645Z" fill="#181818"/>
<path d="M166.264 149.13H141.015L194.987 53.2607H220.236L234.53 78.5977L248.691 53.2607H273.94L327.912 149.13H302.797L261.383 75.5847L219.969 149.13H194.719L221.839 100.922L207.678 75.5847L166.264 149.13Z" fill="#181818"/>
<path d="M137.304 74.185C137.304 82.79 134.252 89.9911 128.149 95.7882C122.045 101.495 114.666 104.348 106.011 104.348H89.0663V140.761H66.7921V104.348H49.8473C41.1017 104.348 33.6769 101.495 27.5732 95.7882C21.5605 89.9911 18.5542 82.79 18.5542 74.185V45.6523H40.8284V74.185C40.8284 79.4386 43.8347 82.0654 49.8473 82.0654H106.011C111.933 82.0654 114.893 79.4386 114.893 74.185V45.6523H137.304V74.185Z" fill="#181818"/>
<path d="M244.921 156.185V133.152H348.827V156.185H244.921ZM244.921 232.065V209.033H348.827V232.065H244.921ZM244.921 194.196V171.022H348.827V194.196H244.921Z" fill="white"/>
<path fill-rule="evenodd" clip-rule="evenodd" d="M393.359 22.8261H22.2656V327.174H393.359V22.8261ZM0 0V350H415.625V0H0Z" fill="#181818"/>
</svg>
