<svg width="23" height="32" viewBox="0 0 23 32" fill="none" xmlns="http://www.w3.org/2000/svg">
<mask id="path-1-inside-1_940_10968" fill="white">
<path fill-rule="evenodd" clip-rule="evenodd" d="M19.0871 0.851581C18.008 0.621291 16.8876 0.5 15.7384 0.5C7.04634 0.5 0 7.43959 0 16C0 24.5604 7.04634 31.5 15.7384 31.5C18.3577 31.5 20.8274 30.8699 23 29.7552C15.9166 28.2435 10.6102 22.0354 10.6102 14.6067C10.6102 8.62586 14.0498 3.43616 19.0871 0.851581Z"/>
</mask>
<path d="M19.0871 0.851581L19.5436 1.7413L22.0416 0.459582L19.2958 -0.126397L19.0871 0.851581ZM23 29.7552L23.4565 30.6449L25.9546 29.3632L23.2087 28.7772L23 29.7552ZM15.7384 1.5C16.817 1.5 17.8675 1.61383 18.8784 1.82956L19.2958 -0.126397C18.1484 -0.371246 16.9581 -0.5 15.7384 -0.5V1.5ZM1 16C1 8.00621 7.58418 1.5 15.7384 1.5V-0.5C6.50851 -0.5 -1 6.87296 -1 16H1ZM15.7384 30.5C7.58418 30.5 1 23.9938 1 16H-1C-1 25.127 6.50851 32.5 15.7384 32.5V30.5ZM22.5435 28.8654C20.5093 29.9092 18.1957 30.5 15.7384 30.5V32.5C18.5196 32.5 21.1456 31.8306 23.4565 30.6449L22.5435 28.8654ZM23.2087 28.7772C16.567 27.3598 11.6102 21.5437 11.6102 14.6067H9.61019C9.61019 22.5272 15.2661 29.1272 22.7913 30.7331L23.2087 28.7772ZM11.6102 14.6067C11.6102 9.02114 14.8215 4.16413 19.5436 1.7413L18.6306 -0.0381398C13.278 2.70819 9.61019 8.23057 9.61019 14.6067H11.6102Z" fill="white" mask="url(#path-1-inside-1_940_10968)"/>
</svg>
