<svg width="32" height="32" viewBox="0 0 32 32" fill="none" xmlns="http://www.w3.org/2000/svg">
<path fill-rule="evenodd" clip-rule="evenodd" d="M13.6449 2.87316C12.8458 4.52791 10.8965 5.24607 9.23356 4.49842C7.23951 3.60191 5.09941 5.41967 5.62535 7.56315C6.06397 9.35072 5.02678 11.1692 3.27812 11.6785C1.1813 12.2891 0.696177 15.0741 2.46021 16.3739C3.93133 17.4579 4.29154 19.5257 3.27539 21.0536C2.05692 22.8858 3.45378 25.3348 5.63048 25.1827C7.44576 25.0559 9.03483 26.4056 9.22665 28.2372C9.45666 30.4335 12.0819 31.4007 13.6528 29.8679C14.9628 28.5897 17.0372 28.5896 18.3472 29.8679C19.9181 31.4007 22.5433 30.4335 22.7734 28.2372C22.9652 26.4056 24.5542 25.0559 26.3695 25.1827C28.5462 25.3348 29.9431 22.8858 28.7246 21.0536C27.7085 19.5257 28.0687 17.4579 29.5398 16.3739C31.3038 15.0741 30.8187 12.2891 28.7219 11.6785C26.9732 11.1692 25.936 9.35072 26.3746 7.56315C26.9006 5.41967 24.7605 3.60191 22.7664 4.49842C21.1035 5.24607 19.1542 4.52791 18.3551 2.87316C17.3969 0.888947 14.6031 0.888947 13.6449 2.87316ZM18.6968 2.70408C17.5995 0.431974 14.4005 0.431974 13.3032 2.70408C12.594 4.17274 10.8639 4.81014 9.38795 4.14657C7.10459 3.11998 4.65397 5.20148 5.25622 7.65595C5.64552 9.2425 4.72497 10.8565 3.17296 11.3085C0.771908 12.0077 0.216398 15.1968 2.23637 16.6852C3.54206 17.6472 3.86176 19.4826 2.95988 20.8386C1.56462 22.9366 3.16415 25.741 5.65667 25.5668C7.26781 25.4543 8.67817 26.6522 8.84842 28.2778C9.11181 30.7928 12.1179 31.9003 13.9167 30.1451C15.0795 29.0106 16.9205 29.0106 18.0833 30.1451C19.8821 31.9003 22.8882 30.7928 23.1516 28.2778C23.3218 26.6522 24.7322 25.4543 26.3433 25.5668C28.8358 25.741 30.4354 22.9366 29.0401 20.8386C28.1382 19.4826 28.4579 17.6472 29.7636 16.6852C31.7836 15.1968 31.2281 12.0077 28.827 11.3085C27.275 10.8565 26.3545 9.2425 26.7438 7.65595C27.346 5.20148 24.8954 3.11998 22.612 4.14657C21.1361 4.81014 19.406 4.17273 18.6968 2.70408Z" fill="#D5FF03"/>
<path fill-rule="evenodd" clip-rule="evenodd" d="M12.7403 2.43228C14.065 -0.31076 17.9348 -0.310761 19.2595 2.43228C19.8235 3.6001 21.1925 4.09948 22.3557 3.57653C25.1307 2.3289 28.0726 4.86263 27.3507 7.80489C27.0398 9.07197 27.7767 10.3516 29.0017 10.7084C31.9058 11.5542 32.5659 15.3967 30.1343 17.1883C29.0989 17.9512 28.842 19.4122 29.5605 20.4925C31.2341 23.0091 29.3257 26.4017 26.2997 26.1903C25.0312 26.1017 23.909 27.0455 23.7731 28.3429C23.4566 31.3653 19.828 32.7209 17.6467 30.5925C16.7268 29.6948 15.2731 29.6948 14.3531 30.5925C12.1718 32.7209 8.54328 31.3653 8.22675 28.3429C8.09087 27.0455 6.96868 26.1017 5.70016 26.1903C2.67412 26.4017 0.765715 23.0091 2.43939 20.4925C3.15786 19.4122 2.90092 17.9512 1.86555 17.1883C-0.566046 15.3967 0.0940911 11.5542 2.99812 10.7084C4.22312 10.3516 4.96006 9.07197 4.64915 7.80489C3.92721 4.86264 6.86914 2.3289 9.64416 3.57653C10.8073 4.09948 12.1763 3.6001 12.7403 2.43228ZM17.7922 3.14496C17.0614 1.63168 14.9384 1.63168 14.2076 3.14496C13.2632 5.10054 10.9529 5.95673 8.9772 5.06846C7.47481 4.39299 5.82601 5.75851 6.23227 7.41421C6.74927 9.52124 5.52847 11.674 3.45281 12.2785C1.85896 12.7427 1.47847 14.8742 2.83088 15.8707C4.57231 17.1539 4.9953 19.5961 3.79573 21.3998C2.85567 22.8132 3.94365 24.6741 5.58684 24.5593C7.74473 24.4085 9.62197 26.0123 9.84817 28.1721C10.025 29.861 12.0278 30.5802 13.2162 29.4206C14.769 27.9054 17.2308 27.9054 18.7836 29.4206C19.972 30.5802 21.9748 29.861 22.1517 28.1721C22.3779 26.0123 24.2551 24.4085 26.413 24.5593C28.0562 24.6741 29.1442 22.8132 28.2041 21.3998C27.0046 19.5961 27.4275 17.1539 29.169 15.8707C30.5214 14.8742 30.1409 12.7427 28.547 12.2785C26.4714 11.674 25.2506 9.52125 25.7676 7.41421C26.1738 5.75851 24.525 4.39299 23.0226 5.06846C21.0469 5.95673 18.7366 5.10054 17.7922 3.14496Z" fill="#D5FF03"/>
<path fill-rule="evenodd" clip-rule="evenodd" d="M16.0001 20.9902C18.5208 20.9902 20.5642 18.9218 20.5642 16.3702C20.5642 13.8187 18.5208 11.7502 16.0001 11.7502C13.4794 11.7502 11.436 13.8187 11.436 16.3702C11.436 18.9218 13.4794 20.9902 16.0001 20.9902ZM16.0001 21.3752C18.7309 21.3752 20.9446 19.1344 20.9446 16.3702C20.9446 13.6061 18.7309 11.3652 16.0001 11.3652C13.2694 11.3652 11.0557 13.6061 11.0557 16.3702C11.0557 19.1344 13.2694 21.3752 16.0001 21.3752Z" fill="#D5FF03"/>
<path fill-rule="evenodd" clip-rule="evenodd" d="M10.4307 16.3702C10.4307 13.2681 12.917 10.7402 16.0001 10.7402C19.0832 10.7402 21.5696 13.2681 21.5696 16.3702C21.5696 19.4724 19.0832 22.0002 16.0001 22.0002C12.917 22.0002 10.4307 19.4724 10.4307 16.3702ZM16.0001 12.3752C13.8318 12.3752 12.061 14.1567 12.061 16.3702C12.061 18.5838 13.8318 20.3652 16.0001 20.3652C18.1685 20.3652 19.9392 18.5838 19.9392 16.3702C19.9392 14.1567 18.1685 12.3752 16.0001 12.3752Z" fill="#D5FF03"/>
</svg>
