<svg width="19" height="20" viewBox="0 0 19 20" fill="none" xmlns="http://www.w3.org/2000/svg">
<path d="M7.5 0.75C11.6421 0.75 15 4.10786 15 8.25C15 9.96015 14.4276 11.5366 13.464 12.7983L18.2071 17.5429C18.5976 17.9334 18.5976 18.5666 18.2071 18.9571C17.8466 19.3176 17.2794 19.3453 16.8871 19.0403L16.7929 18.9571L12.0483 14.214C10.7866 15.1776 9.21015 15.75 7.5 15.75C3.35786 15.75 0 12.3921 0 8.25C0 4.10786 3.35786 0.75 7.5 0.75ZM7.5 2.75C4.46243 2.75 2 5.21243 2 8.25C2 11.2876 4.46243 13.75 7.5 13.75C10.5376 13.75 13 11.2876 13 8.25C13 5.21243 10.5376 2.75 7.5 2.75Z" fill="#515151"/>
</svg>
