<svg width="31" height="29" viewBox="0 0 31 29" fill="none" xmlns="http://www.w3.org/2000/svg">
<path fill-rule="evenodd" clip-rule="evenodd" d="M1 21.1923C1 21.0436 1.09689 20.9231 1.21642 20.9231H29.7836C29.9031 20.9231 30 21.0436 30 21.1923C30 21.341 29.9031 21.4616 29.7836 21.4616H1.21642C1.09689 21.4616 1 21.341 1 21.1923Z" fill="white" stroke="white" stroke-linecap="round"/>
<path fill-rule="evenodd" clip-rule="evenodd" d="M9.564 8.12054C9.69064 8.02374 9.88135 8.03676 9.98997 8.14963L9.76066 8.3249C9.98997 8.14963 9.98993 8.14959 9.98997 8.14963L9.99227 8.15203L9.99859 8.15862L10.0228 8.18404C10.044 8.20632 10.0751 8.23911 10.1149 8.28153C10.1946 8.36636 10.3094 8.48974 10.4506 8.64457C10.7328 8.95414 11.1209 9.38995 11.5444 9.89524C12.3879 10.9014 13.3862 12.1994 13.9627 13.3288C14.6799 14.7337 15.1379 16.6484 15.4169 18.1944C15.557 18.9709 15.653 19.6609 15.7141 20.1569C15.7446 20.405 15.7664 20.6047 15.7806 20.7427C15.7877 20.8117 15.7929 20.8652 15.7963 20.9017L15.8001 20.9434L15.8011 20.9542L15.8014 20.9578C15.8014 20.9579 15.8014 20.9581 15.5002 20.9787L15.8014 20.9578C15.8142 21.106 15.6897 21.2358 15.5234 21.2472C15.357 21.2586 15.2118 21.1476 15.1991 20.9994L15.1988 20.9963L15.1979 20.9864L15.1942 20.9467C15.1909 20.9115 15.1859 20.8594 15.1789 20.7918C15.165 20.6567 15.1436 20.4602 15.1135 20.2156C15.0533 19.7263 14.9585 19.0455 14.8204 18.2799C14.5428 16.7419 14.0946 14.8873 13.4128 13.5518C12.8646 12.4779 11.8994 11.2183 11.0604 10.2175C10.6428 9.71937 10.26 9.28944 9.98167 8.98413C9.84253 8.83152 9.72961 8.71017 9.65163 8.62714C9.61264 8.58562 9.5824 8.5537 9.56199 8.53224L9.53889 8.50802L9.53313 8.50201L9.53174 8.50056" fill="white"/>
<path d="M9.98997 8.14963C9.88135 8.03676 9.69064 8.02374 9.564 8.12054L9.53174 8.50056L9.53313 8.50201L9.53889 8.50802L9.56199 8.53224C9.5824 8.5537 9.61264 8.58562 9.65163 8.62714C9.72961 8.71017 9.84253 8.83152 9.98167 8.98413C10.26 9.28944 10.6428 9.71937 11.0604 10.2175C11.8994 11.2183 12.8646 12.4779 13.4128 13.5518C14.0946 14.8873 14.5428 16.7419 14.8204 18.2799C14.9585 19.0455 15.0533 19.7263 15.1135 20.2156C15.1436 20.4602 15.165 20.6567 15.1789 20.7918C15.1859 20.8594 15.1909 20.9115 15.1942 20.9467L15.1979 20.9864L15.1988 20.9963L15.1991 20.9994C15.2118 21.1476 15.357 21.2586 15.5234 21.2472C15.6897 21.2358 15.8142 21.106 15.8014 20.9578M9.98997 8.14963L9.76066 8.3249C9.98997 8.14963 9.98993 8.14959 9.98997 8.14963ZM9.98997 8.14963L9.99227 8.15203L9.99859 8.15862L10.0228 8.18404C10.044 8.20632 10.0751 8.23911 10.1149 8.28153C10.1946 8.36636 10.3094 8.48974 10.4506 8.64457C10.7328 8.95414 11.1209 9.38995 11.5444 9.89524C12.3879 10.9014 13.3862 12.1994 13.9627 13.3288C14.6799 14.7337 15.1379 16.6484 15.4169 18.1944C15.557 18.9709 15.653 19.6609 15.7141 20.1569C15.7446 20.405 15.7664 20.6047 15.7806 20.7427C15.7877 20.8117 15.7929 20.8652 15.7963 20.9017L15.8001 20.9434L15.8011 20.9542L15.8014 20.9578M15.8014 20.9578C15.8014 20.9579 15.8014 20.9581 15.5002 20.9787L15.8014 20.9578Z" stroke="white" stroke-width="0.5" stroke-linecap="round"/>
<path fill-rule="evenodd" clip-rule="evenodd" d="M2.7158 1.06154L2.65367 1.32502L2.35315 1.29769L2.38722 1L2.7158 1.06154ZM14.1328 14.2481C14.4224 14.3248 14.4224 14.3247 14.4225 14.3246L14.4229 14.3234L14.4239 14.3202L14.4279 14.3081C14.4313 14.2977 14.4362 14.2824 14.4425 14.2625C14.4551 14.2227 14.4732 14.1646 14.4955 14.0899C14.5401 13.9405 14.6017 13.7249 14.6699 13.4583C14.8064 12.9255 14.9703 12.1867 15.0797 11.3633C15.189 10.5409 15.2447 9.62791 15.1616 8.74859C15.0787 7.87154 14.8561 7.01045 14.3937 6.30465C13.0854 4.30772 11.3024 3.66283 9.18857 2.89831C8.77458 2.74858 8.3479 2.59426 7.90962 2.4243C6.9287 2.0439 5.62603 1.70314 4.57906 1.45888C4.05343 1.33626 3.58824 1.23704 3.25436 1.16846C3.08738 1.13417 2.95312 1.10751 2.86043 1.08939C2.81408 1.08033 2.77812 1.0734 2.75365 1.06872L2.7257 1.06341L2.7158 1.06154C2.71576 1.06153 2.7158 1.06154 2.65367 1.32502C2.35315 1.29769 2.35315 1.29765 2.35315 1.29769L2.35288 1.30009L2.35216 1.30652L2.34945 1.33115C2.34712 1.35268 2.34376 1.38428 2.33962 1.42501C2.33133 1.50646 2.3199 1.62444 2.30721 1.77141C2.28184 2.06522 2.25139 2.47544 2.23109 2.94145C2.19071 3.86832 2.18943 5.03504 2.35551 5.94516L2.35885 5.96346C2.69081 7.78268 3.0133 9.54998 3.74626 11.0359C4.48938 12.5424 5.65813 13.7692 7.67567 14.4976C8.89527 14.938 10.5439 14.9312 11.8489 14.8271C12.5088 14.7745 13.0952 14.6956 13.5166 14.6299C13.7274 14.597 13.8974 14.5674 14.0151 14.5458C14.074 14.5351 14.1198 14.5263 14.1512 14.5203L14.1872 14.5132L14.1968 14.5112L14.1994 14.5107L14.2001 14.5106C14.2002 14.5105 14.2005 14.5105 14.1328 14.2481ZM14.1328 14.2481L14.4225 14.3246L14.3722 14.4753L14.2001 14.5106L14.1328 14.2481ZM13.8913 14.0188C13.8976 13.9982 13.9044 13.9757 13.9117 13.9513C13.9547 13.8074 14.0144 13.5982 14.0809 13.3385C14.214 12.8188 14.3735 12.0994 14.4797 11.3C14.5861 10.4997 14.6382 9.62527 14.5596 8.79379C14.4808 7.96005 14.2721 7.1869 13.872 6.57615C12.6749 4.7489 11.1016 4.17712 9.00206 3.41405C8.57931 3.26041 8.13522 3.09901 7.66856 2.91804C6.73262 2.55509 5.46759 2.22278 4.42606 1.97979C3.90744 1.8588 3.44819 1.76085 3.11869 1.69317C3.04741 1.67853 2.98222 1.66531 2.92385 1.65359C2.91938 1.70169 2.91459 1.7549 2.90959 1.81273C2.88466 2.10142 2.85474 2.50464 2.8348 2.96234C2.7947 3.88287 2.79598 5.00462 2.95184 5.85872C3.28823 7.70215 3.60087 9.4032 4.29934 10.8192C4.99011 12.2196 6.05431 13.3313 7.90251 13.9986C8.97905 14.3872 10.5023 14.394 11.7951 14.2908C12.4341 14.2398 13.0032 14.1633 13.4125 14.0995C13.6155 14.0678 13.7788 14.0393 13.8913 14.0188Z" fill="white"/>
<path d="M2.65367 1.32502L2.7158 1.06154M2.65367 1.32502L2.35315 1.29769M2.65367 1.32502C2.7158 1.06154 2.71576 1.06153 2.7158 1.06154M2.65367 1.32502C2.35315 1.29769 2.35315 1.29765 2.35315 1.29769M2.7158 1.06154L2.38722 1L2.35315 1.29769M2.7158 1.06154L2.7257 1.06341L2.75365 1.06872C2.77812 1.0734 2.81408 1.08033 2.86043 1.08939C2.95312 1.10751 3.08738 1.13417 3.25436 1.16846C3.58824 1.23704 4.05343 1.33626 4.57906 1.45888C5.62603 1.70314 6.9287 2.0439 7.90962 2.4243C8.3479 2.59426 8.77458 2.74858 9.18857 2.89831C11.3024 3.66283 13.0854 4.30772 14.3937 6.30465C14.8561 7.01045 15.0787 7.87154 15.1616 8.74859C15.2447 9.62791 15.189 10.5409 15.0797 11.3633C14.9703 12.1867 14.8064 12.9255 14.6699 13.4583C14.6017 13.7249 14.5401 13.9405 14.4955 14.0899C14.4732 14.1646 14.4551 14.2227 14.4425 14.2625C14.4362 14.2824 14.4313 14.2977 14.4279 14.3081L14.4239 14.3202L14.4229 14.3234L14.4225 14.3246M2.35315 1.29769L2.35288 1.30009L2.35216 1.30652L2.34945 1.33115C2.34712 1.35268 2.34376 1.38428 2.33962 1.42501C2.33133 1.50646 2.3199 1.62444 2.30721 1.77141C2.28184 2.06522 2.25139 2.47544 2.23109 2.94145C2.19071 3.86832 2.18943 5.03504 2.35551 5.94516L2.35885 5.96346C2.69081 7.78268 3.0133 9.54998 3.74626 11.0359C4.48938 12.5424 5.65813 13.7692 7.67567 14.4976C8.89527 14.938 10.5439 14.9312 11.8489 14.8271C12.5088 14.7745 13.0952 14.6956 13.5166 14.6299C13.7274 14.597 13.8974 14.5674 14.0151 14.5458C14.074 14.5351 14.1198 14.5263 14.1512 14.5203L14.1872 14.5132L14.1968 14.5112L14.1994 14.5107L14.2001 14.5106M14.1328 14.2481C14.4224 14.3248 14.4224 14.3247 14.4225 14.3246M14.1328 14.2481C14.2005 14.5105 14.2002 14.5105 14.2001 14.5106M14.1328 14.2481L14.4225 14.3246M14.1328 14.2481L14.2001 14.5106M14.4225 14.3246L14.3722 14.4753L14.2001 14.5106M13.9117 13.9513C13.9044 13.9757 13.8976 13.9982 13.8913 14.0188C13.7788 14.0393 13.6155 14.0678 13.4125 14.0995C13.0032 14.1633 12.4341 14.2398 11.7951 14.2908C10.5023 14.394 8.97905 14.3872 7.90251 13.9986C6.05431 13.3313 4.99011 12.2196 4.29934 10.8192C3.60087 9.4032 3.28823 7.70215 2.95184 5.85872C2.79598 5.00462 2.7947 3.88287 2.8348 2.96234C2.85474 2.50465 2.88466 2.10142 2.90959 1.81273C2.91459 1.7549 2.91938 1.70169 2.92385 1.65359C2.98222 1.66531 3.04741 1.67853 3.11869 1.69317C3.44819 1.76085 3.90744 1.8588 4.42606 1.97979C5.46759 2.22278 6.73262 2.55509 7.66856 2.91804C8.13522 3.09901 8.57931 3.26041 9.00206 3.41405C11.1016 4.17712 12.6749 4.7489 13.872 6.57615C14.2721 7.1869 14.4808 7.96005 14.5596 8.79379C14.6382 9.62527 14.5861 10.4997 14.4797 11.3C14.3735 12.0994 14.214 12.8188 14.0809 13.3385C14.0144 13.5982 13.9547 13.8074 13.9117 13.9513Z" stroke="white" stroke-width="0.5"/>
<path d="M5.88558 4.5558C5.88558 4.68882 5.75485 4.84426 5.53141 4.84426C5.30797 4.84426 5.17725 4.68882 5.17725 4.5558C5.17725 4.42277 5.30797 4.26733 5.53141 4.26733C5.75485 4.26733 5.88558 4.42277 5.88558 4.5558Z" fill="white" stroke="white" stroke-width="0.5"/>
<path d="M8.30208 6.7096C8.30208 6.84263 8.17136 6.99807 7.94792 6.99807C7.72448 6.99807 7.59375 6.84263 7.59375 6.7096C7.59375 6.57658 7.72448 6.42114 7.94792 6.42114C8.17136 6.42114 8.30208 6.57658 8.30208 6.7096Z" fill="white" stroke="white" stroke-width="0.5"/>
<path d="M15.8021 23.402C15.8021 23.6994 15.5316 23.9404 15.1979 23.9404C14.8642 23.9404 14.5938 23.6994 14.5938 23.402C14.5938 23.1046 14.8642 22.8635 15.1979 22.8635C15.5316 22.8635 15.8021 23.1046 15.8021 23.402Z" fill="white"/>
<path d="M13.9896 25.0175C13.9896 25.3148 13.7191 25.5559 13.3854 25.5559C13.0517 25.5559 12.7812 25.3148 12.7812 25.0175C12.7812 24.7201 13.0517 24.479 13.3854 24.479C13.7191 24.479 13.9896 24.7201 13.9896 25.0175Z" fill="white"/>
<path d="M8.55208 23.402C8.55208 23.6994 8.28159 23.9404 7.94792 23.9404C7.61424 23.9404 7.34375 23.6994 7.34375 23.402C7.34375 23.1046 7.61424 22.8635 7.94792 22.8635C8.28159 22.8635 8.55208 23.1046 8.55208 23.402Z" fill="white"/>
<path d="M6.73958 25.0175C6.73958 25.3148 6.46909 25.5559 6.13542 25.5559C5.80174 25.5559 5.53125 25.3148 5.53125 25.0175C5.53125 24.7201 5.80174 24.479 6.13542 24.479C6.46909 24.479 6.73958 24.7201 6.73958 25.0175Z" fill="white"/>
<path d="M23.0521 23.402C23.0521 23.6994 22.7816 23.9404 22.4479 23.9404C22.1142 23.9404 21.8438 23.6994 21.8438 23.402C21.8438 23.1046 22.1142 22.8635 22.4479 22.8635C22.7816 22.8635 23.0521 23.1046 23.0521 23.402Z" fill="white"/>
<path d="M21.2396 25.0175C21.2396 25.3148 20.9691 25.5559 20.6354 25.5559C20.3017 25.5559 20.0312 25.3148 20.0312 25.0175C20.0312 24.7201 20.3017 24.479 20.6354 24.479C20.9691 24.479 21.2396 24.7201 21.2396 25.0175Z" fill="white"/>
<path d="M4.92708 23.402C4.92708 23.6994 4.65659 23.9404 4.32292 23.9404C3.98924 23.9404 3.71875 23.6994 3.71875 23.402C3.71875 23.1046 3.98924 22.8635 4.32292 22.8635C4.65659 22.8635 4.92708 23.1046 4.92708 23.402Z" fill="white"/>
<path d="M3.11458 25.0175C3.11458 25.3148 2.84409 25.5559 2.51042 25.5559C2.17674 25.5559 1.90625 25.3148 1.90625 25.0175C1.90625 24.7201 2.17674 24.479 2.51042 24.479C2.84409 24.479 3.11458 24.7201 3.11458 25.0175Z" fill="white"/>
<path d="M19.4271 23.402C19.4271 23.6994 19.1566 23.9404 18.8229 23.9404C18.4892 23.9404 18.2188 23.6994 18.2188 23.402C18.2188 23.1046 18.4892 22.8635 18.8229 22.8635C19.1566 22.8635 19.4271 23.1046 19.4271 23.402Z" fill="white"/>
<path d="M17.6146 25.0175C17.6146 25.3148 17.3441 25.5559 17.0104 25.5559C16.6767 25.5559 16.4062 25.3148 16.4062 25.0175C16.4062 24.7201 16.6767 24.479 17.0104 24.479C17.3441 24.479 17.6146 24.7201 17.6146 25.0175Z" fill="white"/>
<path d="M28.4896 25.0175C28.4896 25.3148 28.2191 25.5559 27.8854 25.5559C27.5517 25.5559 27.2812 25.3148 27.2812 25.0175C27.2812 24.7201 27.5517 24.479 27.8854 24.479C28.2191 24.479 28.4896 24.7201 28.4896 25.0175Z" fill="white"/>
<path d="M12.1771 23.402C12.1771 23.6994 11.9066 23.9404 11.5729 23.9404C11.2392 23.9404 10.9688 23.6994 10.9688 23.402C10.9688 23.1046 11.2392 22.8635 11.5729 22.8635C11.9066 22.8635 12.1771 23.1046 12.1771 23.402Z" fill="white"/>
<path d="M10.3646 25.0175C10.3646 25.3148 10.0941 25.5559 9.76042 25.5559C9.42674 25.5559 9.15625 25.3148 9.15625 25.0175C9.15625 24.7201 9.42674 24.479 9.76042 24.479C10.0941 24.479 10.3646 24.7201 10.3646 25.0175Z" fill="white"/>
<path d="M26.6771 23.402C26.6771 23.6994 26.4066 23.9404 26.0729 23.9404C25.7392 23.9404 25.4688 23.6994 25.4688 23.402C25.4688 23.1046 25.7392 22.8635 26.0729 22.8635C26.4066 22.8635 26.6771 23.1046 26.6771 23.402Z" fill="white"/>
<path d="M24.8646 25.0175C24.8646 25.3148 24.5941 25.5559 24.2604 25.5559C23.9267 25.5559 23.6562 25.3148 23.6562 25.0175C23.6562 24.7201 23.9267 24.479 24.2604 24.479C24.5941 24.479 24.8646 24.7201 24.8646 25.0175Z" fill="white"/>
<path d="M15.8021 26.6327C15.8021 26.9301 15.5316 27.1712 15.1979 27.1712C14.8642 27.1712 14.5938 26.9301 14.5938 26.6327C14.5938 26.3353 14.8642 26.0942 15.1979 26.0942C15.5316 26.0942 15.8021 26.3353 15.8021 26.6327Z" fill="white"/>
<path d="M13.9896 28.2482C13.9896 28.5456 13.7191 28.7866 13.3854 28.7866C13.0517 28.7866 12.7812 28.5456 12.7812 28.2482C12.7812 27.9508 13.0517 27.7097 13.3854 27.7097C13.7191 27.7097 13.9896 27.9508 13.9896 28.2482Z" fill="white"/>
<path d="M8.55208 26.6327C8.55208 26.9301 8.28159 27.1712 7.94792 27.1712C7.61424 27.1712 7.34375 26.9301 7.34375 26.6327C7.34375 26.3353 7.61424 26.0942 7.94792 26.0942C8.28159 26.0942 8.55208 26.3353 8.55208 26.6327Z" fill="white"/>
<path d="M6.73958 28.2482C6.73958 28.5456 6.46909 28.7866 6.13542 28.7866C5.80174 28.7866 5.53125 28.5456 5.53125 28.2482C5.53125 27.9508 5.80174 27.7097 6.13542 27.7097C6.46909 27.7097 6.73958 27.9508 6.73958 28.2482Z" fill="white"/>
<path d="M23.0521 26.6327C23.0521 26.9301 22.7816 27.1712 22.4479 27.1712C22.1142 27.1712 21.8438 26.9301 21.8438 26.6327C21.8438 26.3353 22.1142 26.0942 22.4479 26.0942C22.7816 26.0942 23.0521 26.3353 23.0521 26.6327Z" fill="white"/>
<path d="M21.2396 28.2482C21.2396 28.5456 20.9691 28.7866 20.6354 28.7866C20.3017 28.7866 20.0312 28.5456 20.0312 28.2482C20.0312 27.9508 20.3017 27.7097 20.6354 27.7097C20.9691 27.7097 21.2396 27.9508 21.2396 28.2482Z" fill="white"/>
<path d="M4.92708 26.6327C4.92708 26.9301 4.65659 27.1712 4.32292 27.1712C3.98924 27.1712 3.71875 26.9301 3.71875 26.6327C3.71875 26.3353 3.98924 26.0942 4.32292 26.0942C4.65659 26.0942 4.92708 26.3353 4.92708 26.6327Z" fill="white"/>
<path d="M3.11458 28.2482C3.11458 28.5456 2.84409 28.7866 2.51042 28.7866C2.17674 28.7866 1.90625 28.5456 1.90625 28.2482C1.90625 27.9508 2.17674 27.7097 2.51042 27.7097C2.84409 27.7097 3.11458 27.9508 3.11458 28.2482Z" fill="white"/>
<path d="M19.4271 26.6327C19.4271 26.9301 19.1566 27.1712 18.8229 27.1712C18.4892 27.1712 18.2188 26.9301 18.2188 26.6327C18.2188 26.3353 18.4892 26.0942 18.8229 26.0942C19.1566 26.0942 19.4271 26.3353 19.4271 26.6327Z" fill="white"/>
<path d="M17.6146 28.2482C17.6146 28.5456 17.3441 28.7866 17.0104 28.7866C16.6767 28.7866 16.4062 28.5456 16.4062 28.2482C16.4062 27.9508 16.6767 27.7097 17.0104 27.7097C17.3441 27.7097 17.6146 27.9508 17.6146 28.2482Z" fill="white"/>
<path d="M28.4896 28.2482C28.4896 28.5456 28.2191 28.7866 27.8854 28.7866C27.5517 28.7866 27.2812 28.5456 27.2812 28.2482C27.2812 27.9508 27.5517 27.7097 27.8854 27.7097C28.2191 27.7097 28.4896 27.9508 28.4896 28.2482Z" fill="white"/>
<path d="M12.1771 26.6327C12.1771 26.9301 11.9066 27.1712 11.5729 27.1712C11.2392 27.1712 10.9688 26.9301 10.9688 26.6327C10.9688 26.3353 11.2392 26.0942 11.5729 26.0942C11.9066 26.0942 12.1771 26.3353 12.1771 26.6327Z" fill="white"/>
<path d="M10.3646 28.2482C10.3646 28.5456 10.0941 28.7866 9.76042 28.7866C9.42674 28.7866 9.15625 28.5456 9.15625 28.2482C9.15625 27.9508 9.42674 27.7097 9.76042 27.7097C10.0941 27.7097 10.3646 27.9508 10.3646 28.2482Z" fill="white"/>
<path d="M26.6771 26.6327C26.6771 26.9301 26.4066 27.1712 26.0729 27.1712C25.7392 27.1712 25.4688 26.9301 25.4688 26.6327C25.4688 26.3353 25.7392 26.0942 26.0729 26.0942C26.4066 26.0942 26.6771 26.3353 26.6771 26.6327Z" fill="white"/>
<path d="M24.8646 28.2482C24.8646 28.5456 24.5941 28.7866 24.2604 28.7866C23.9267 28.7866 23.6562 28.5456 23.6562 28.2482C23.6562 27.9508 23.9267 27.7097 24.2604 27.7097C24.5941 27.7097 24.8646 27.9508 24.8646 28.2482Z" fill="white"/>
<path fill-rule="evenodd" clip-rule="evenodd" d="M20.9974 11.1105C20.8771 11.0095 20.6879 11.0164 20.5748 11.1259L20.7927 11.3088C20.5748 11.1259 20.5748 11.1259 20.5748 11.1259L20.5728 11.1278L20.5676 11.1329L20.5475 11.1525C20.5299 11.1697 20.5042 11.195 20.4713 11.2276C20.4055 11.2929 20.3106 11.3878 20.1938 11.507C19.9604 11.7453 19.639 12.0809 19.287 12.4708C18.5869 13.2462 17.751 14.2521 17.2519 15.137C16.6311 16.2378 16.1953 17.7479 15.9152 18.9653C15.7744 19.5775 15.6716 20.1221 15.604 20.5138C15.5702 20.7098 15.5451 20.8676 15.5284 20.9768C15.5201 21.0314 15.5139 21.0738 15.5097 21.1027L15.505 21.1358L15.5038 21.1444L15.5035 21.1467L15.5034 21.1473C15.5034 21.1474 15.5034 21.1476 15.8002 21.178L15.5034 21.1473C15.4833 21.2953 15.5998 21.4292 15.7637 21.446C15.9276 21.4627 16.0768 21.3563 16.0969 21.2084C16.0969 21.2084 16.0969 21.2084 16.0969 21.2084L16.0973 21.206L16.0983 21.1983L16.1028 21.1672C16.1067 21.1396 16.1127 21.0985 16.1209 21.0454C16.1371 20.9391 16.1616 20.7844 16.1948 20.592C16.2613 20.207 16.3624 19.6715 16.5007 19.0702C16.7789 17.8607 17.2021 16.4105 17.7844 15.3779C18.2526 14.5476 19.054 13.5792 19.7493 12.809C20.095 12.4261 20.4109 12.0962 20.6403 11.8621C20.7549 11.745 20.8479 11.6521 20.912 11.5885C20.944 11.5568 20.9688 11.5323 20.9856 11.516L21.0045 11.4975L21.0091 11.493L21.0103 11.4919" fill="white"/>
<path d="M20.5748 11.1259C20.6879 11.0164 20.8771 11.0095 20.9974 11.1105L21.0103 11.4919L21.0091 11.493L21.0045 11.4975L20.9856 11.516C20.9688 11.5323 20.944 11.5568 20.912 11.5885C20.8479 11.6521 20.7549 11.745 20.6403 11.8621C20.4109 12.0962 20.095 12.4261 19.7493 12.809C19.054 13.5792 18.2526 14.5476 17.7844 15.3779C17.2021 16.4105 16.7789 17.8607 16.5007 19.0702C16.3624 19.6715 16.2613 20.207 16.1948 20.592C16.1616 20.7844 16.1371 20.9391 16.1209 21.0454C16.1127 21.0985 16.1067 21.1396 16.1028 21.1672L16.0983 21.1983L16.0973 21.206L16.0969 21.2084M20.5748 11.1259L20.7927 11.3088C20.5748 11.1259 20.5748 11.1259 20.5748 11.1259ZM20.5748 11.1259L20.5728 11.1278L20.5676 11.1329L20.5475 11.1525C20.5299 11.1697 20.5042 11.195 20.4713 11.2276C20.4055 11.2929 20.3106 11.3878 20.1938 11.507C19.9604 11.7453 19.639 12.0809 19.287 12.4708C18.5869 13.2462 17.751 14.2521 17.2519 15.137C16.6311 16.2378 16.1953 17.7479 15.9152 18.9653C15.7744 19.5775 15.6716 20.1221 15.604 20.5138C15.5702 20.7098 15.5451 20.8676 15.5284 20.9768C15.5201 21.0314 15.5139 21.0738 15.5097 21.1027L15.505 21.1358L15.5038 21.1444L15.5035 21.1467L15.5034 21.1473M15.5034 21.1473C15.5034 21.1474 15.5034 21.1476 15.8002 21.178L15.5034 21.1473ZM15.5034 21.1473C15.4833 21.2953 15.5998 21.4292 15.7637 21.446C15.9276 21.4627 16.0768 21.3563 16.0969 21.2084M16.0969 21.2084C16.0969 21.2084 16.0969 21.2084 16.0969 21.2084Z" stroke="white" stroke-width="0.5" stroke-linecap="round"/>
<path fill-rule="evenodd" clip-rule="evenodd" d="M26.6105 5.69667L26.6588 5.96287L26.9588 5.94519L26.9401 5.64558L26.6105 5.69667ZM17.1222 15.9157C16.8306 15.9832 16.8306 15.9831 16.8305 15.9831L16.8303 15.982L16.8295 15.9793L16.8269 15.9695L16.8171 15.9326C16.8087 15.9005 16.7968 15.8536 16.7822 15.7935C16.753 15.6734 16.7131 15.5002 16.67 15.2864C16.5839 14.859 16.4844 14.267 16.4313 13.6089C16.3782 12.9516 16.3709 12.2223 16.4722 11.5222C16.5732 10.8245 16.7845 10.1382 17.1831 9.58068C18.3035 8.01334 19.7525 7.54066 21.445 6.98851C21.7753 6.88077 22.1149 6.76999 22.4631 6.64747C23.2538 6.36927 24.2948 6.13162 25.1277 5.96461C25.5463 5.88067 25.9164 5.81379 26.1819 5.76787C26.3147 5.74491 26.4215 5.72716 26.4952 5.71514C26.5321 5.70912 26.5607 5.70454 26.5802 5.70144L26.6025 5.69791L26.6099 5.69676C26.6099 5.69676 26.6105 5.69667 26.6588 5.96287C26.9588 5.94519 26.9588 5.94515 26.9588 5.94519L26.9589 5.94717L26.9593 5.95236L26.9604 5.97211C26.9614 5.98935 26.9627 6.0146 26.9644 6.04712C26.9676 6.11213 26.9719 6.20623 26.976 6.32336C26.9841 6.5575 26.9916 6.88426 26.9889 7.25514C26.9834 7.99172 26.9376 8.92153 26.7693 9.64472L26.7649 9.66361C26.4319 11.0942 26.1063 12.4931 25.4673 13.659C24.8171 14.8454 23.8382 15.7999 22.206 16.3317C21.215 16.6546 19.9071 16.6053 18.8848 16.4893C18.3663 16.4304 17.907 16.3525 17.5774 16.2894C17.4124 16.2578 17.2794 16.2299 17.1873 16.2097C17.1412 16.1996 17.1053 16.1915 17.0807 16.1858L17.0523 16.1791L17.0447 16.1773L17.0426 16.1768L17.042 16.1767C17.0419 16.1767 17.0417 16.1766 17.1222 15.9157ZM17.1222 15.9157L16.8305 15.9831L16.8728 16.1358L17.042 16.1767L17.1222 15.9157ZM17.3741 15.6933C17.3725 15.6869 17.3709 15.6803 17.3693 15.6735C17.3414 15.5589 17.303 15.3921 17.2614 15.1852C17.1779 14.7712 17.0818 14.1988 17.0306 13.5648C16.9794 12.9298 16.9737 12.2393 17.0681 11.587C17.1628 10.9325 17.3558 10.334 17.6877 9.8698C18.689 8.469 19.9259 8.06284 21.6042 7.5117C21.9434 7.40031 22.3006 7.283 22.6776 7.15036C23.4227 6.88819 24.4259 6.65781 25.2533 6.4919C25.6648 6.40937 26.029 6.34356 26.2901 6.2984C26.3191 6.29339 26.3468 6.28863 26.3731 6.28414C26.3739 6.30372 26.3746 6.32413 26.3754 6.34532C26.3833 6.57431 26.3907 6.89404 26.388 7.25657C26.3826 7.98678 26.3365 8.87141 26.1812 9.53877C25.8425 10.9936 25.5301 12.3267 24.9288 13.4238C24.3359 14.5055 23.4668 15.348 22.0059 15.824C21.1597 16.0997 19.9758 16.0679 18.9655 15.9532C18.4677 15.8967 18.0255 15.8218 17.7077 15.7609C17.5715 15.7349 17.4585 15.7114 17.3741 15.6933Z" fill="white"/>
<path d="M26.6588 5.96287L26.6105 5.69667L26.9401 5.64558L26.9588 5.94519M26.6588 5.96287L26.9588 5.94519M26.6588 5.96287C26.6105 5.69667 26.6099 5.69676 26.6099 5.69676L26.6025 5.69791L26.5802 5.70144C26.5607 5.70454 26.5321 5.70912 26.4952 5.71514C26.4215 5.72716 26.3147 5.74491 26.1819 5.76787C25.9164 5.81379 25.5463 5.88067 25.1277 5.96461C24.2948 6.13162 23.2538 6.36927 22.4631 6.64747C22.1149 6.76999 21.7753 6.88077 21.445 6.98851C19.7525 7.54066 18.3035 8.01334 17.1831 9.58068C16.7845 10.1382 16.5732 10.8245 16.4722 11.5222C16.3709 12.2223 16.3782 12.9516 16.4313 13.6089C16.4844 14.267 16.5839 14.859 16.67 15.2864C16.7131 15.5002 16.753 15.6734 16.7822 15.7935C16.7968 15.8536 16.8087 15.9005 16.8171 15.9326L16.8269 15.9695L16.8295 15.9793L16.8303 15.982L16.8305 15.9831M26.6588 5.96287C26.9588 5.94519 26.9588 5.94515 26.9588 5.94519M26.9588 5.94519L26.9589 5.94717L26.9593 5.95236L26.9604 5.97211C26.9614 5.98935 26.9627 6.0146 26.9644 6.04712C26.9676 6.11213 26.9719 6.20623 26.976 6.32336C26.9841 6.5575 26.9916 6.88426 26.9889 7.25514C26.9834 7.99172 26.9376 8.92153 26.7693 9.64472L26.7649 9.66361C26.4319 11.0942 26.1063 12.4931 25.4673 13.659C24.8171 14.8454 23.8382 15.7999 22.206 16.3317C21.215 16.6546 19.9071 16.6053 18.8848 16.4893C18.3663 16.4304 17.907 16.3525 17.5774 16.2894C17.4124 16.2579 17.2794 16.2299 17.1873 16.2097C17.1412 16.1996 17.1053 16.1915 17.0807 16.1858L17.0523 16.1791L17.0447 16.1773L17.0426 16.1768L17.042 16.1767M17.1222 15.9157C16.8306 15.9832 16.8306 15.9831 16.8305 15.9831M17.1222 15.9157C17.0417 16.1766 17.0419 16.1767 17.042 16.1767M17.1222 15.9157L16.8305 15.9831M17.1222 15.9157L17.042 16.1767M16.8305 15.9831L16.8728 16.1358L17.042 16.1767M17.3693 15.6735C17.3709 15.6803 17.3725 15.6869 17.3741 15.6933C17.4585 15.7114 17.5715 15.7349 17.7077 15.7609C18.0255 15.8218 18.4677 15.8967 18.9655 15.9532C19.9758 16.0679 21.1597 16.0997 22.0059 15.824C23.4668 15.348 24.3359 14.5055 24.9288 13.4238C25.5301 12.3267 25.8425 10.9936 26.1812 9.53877C26.3365 8.87141 26.3826 7.98678 26.388 7.25657C26.3907 6.89404 26.3833 6.57431 26.3754 6.34532C26.3746 6.32413 26.3739 6.30372 26.3731 6.28414C26.3468 6.28863 26.3191 6.29339 26.2901 6.2984C26.029 6.34356 25.6648 6.40937 25.2533 6.4919C24.4259 6.65781 23.4227 6.88819 22.6776 7.15036C22.3006 7.283 21.9434 7.40031 21.6042 7.5117C19.9259 8.06284 18.689 8.469 17.6877 9.8698C17.3558 10.334 17.1628 10.9325 17.0681 11.587C16.9737 12.2393 16.9794 12.9298 17.0306 13.5648C17.0818 14.1988 17.1779 14.7712 17.2614 15.1852C17.303 15.3921 17.3414 15.5589 17.3693 15.6735Z" stroke="white" stroke-width="0.5"/>
<path d="M24.0433 8.46254C24.0395 8.53647 24.1097 8.64252 24.2595 8.64739C24.4093 8.65226 24.4899 8.55113 24.4936 8.47719C24.4974 8.40326 24.4272 8.29722 24.2774 8.29234C24.1276 8.28747 24.047 8.38861 24.0433 8.46254Z" fill="white" stroke="white" stroke-width="0.5"/>
<path d="M22.0564 10.0951C22.0527 10.169 22.1228 10.2751 22.2726 10.28C22.4225 10.2848 22.5031 10.1837 22.5068 10.1098C22.5106 10.0358 22.4404 9.92979 22.2906 9.92491C22.1408 9.92004 22.0602 10.0212 22.0564 10.0951Z" fill="white" stroke="white" stroke-width="0.5"/>
</svg>
