<svg width="305" height="250" viewBox="0 0 305 250" fill="none" xmlns="http://www.w3.org/2000/svg">
<path d="M125 165.761L125 97.8262L108.318 97.8262L65.4933 143.537L65.4933 97.8262L48.9128 97.8262L48.9128 165.761L65.4933 165.761L108.318 120.342L108.318 165.761H125Z" fill="white"/>
<path d="M217.391 165.908V149.456H280.948C287.36 149.456 292.846 151.811 297.407 156.521C302.034 161.164 304.348 166.783 304.348 173.377C304.348 179.904 302.034 185.522 297.407 190.232C292.846 194.875 287.36 197.197 280.948 197.197H233.553V220.108H217.391V180.644H280.948C282.865 180.644 284.517 179.937 285.905 178.524C287.36 177.044 288.087 175.295 288.087 173.276C288.087 171.257 287.36 169.541 285.905 168.128C284.517 166.648 282.865 165.908 280.948 165.908H217.391Z" fill="white"/>
<path d="M186.467 149.456V165.655H155.554V219.021H139.608V165.655H108.695V149.456H186.467Z" fill="white"/>
<path d="M121.75 106.522H103.261L142.783 38.0439H161.272L171.739 56.1418L182.109 38.0439H200.598L240.12 106.522H221.728L191.402 53.9896L161.076 106.522H142.587L162.446 72.0874L152.076 53.9896L121.75 106.522Z" fill="white"/>
<path d="M100.543 52.9888C100.543 59.1353 98.3085 64.279 93.839 68.4197C89.3694 72.4958 83.9659 74.5339 77.6284 74.5339H65.2204V100.543H48.9098V74.5339H36.5017C30.0975 74.5339 24.6607 72.4958 20.1911 68.4197C15.7882 64.279 13.5868 59.1353 13.5868 52.9888V32.6084H29.8974V52.9888C29.8974 56.7414 32.0988 58.6177 36.5017 58.6177H77.6284C81.9646 58.6177 84.1326 56.7414 84.1326 52.9888V32.6084H100.543V52.9888Z" fill="white"/>
<path d="M179.348 111.56V95.1084H255.435V111.56H179.348ZM179.348 165.761V149.309H255.435V165.761H179.348ZM179.348 138.711V122.158H255.435V138.711H179.348Z" fill="#D5FF03"/>
<path fill-rule="evenodd" clip-rule="evenodd" d="M288.043 16.3043H16.3043V233.696H288.043V16.3043ZM0 0V250H304.348V0H0Z" fill="white"/>
</svg>
