<svg width="26" height="26" viewBox="0 0 26 26" fill="none" xmlns="http://www.w3.org/2000/svg">
<path fill-rule="evenodd" clip-rule="evenodd" d="M10.8977 2.49853C10.2584 3.82233 8.69895 4.39686 7.36859 3.79874C5.77335 3.08153 4.06126 4.53573 4.48202 6.25052C4.83291 7.68057 4.00316 9.13534 2.60424 9.54277C0.926778 10.0313 0.538679 12.2593 1.94991 13.2991C3.1268 14.1663 3.41497 15.8206 2.60205 17.0429C1.62727 18.5086 2.74476 20.4679 4.48613 20.3462C5.93835 20.2447 7.2096 21.3245 7.36306 22.7898C7.54707 24.5468 9.64725 25.3206 10.904 24.0944C11.952 23.0717 13.6115 23.0717 14.6595 24.0944C15.9162 25.3206 18.0164 24.5468 18.2004 22.7898C18.3539 21.3245 19.6251 20.2447 21.0774 20.3462C22.8187 20.4679 23.9362 18.5086 22.9614 17.0429C22.1485 15.8206 22.4367 14.1663 23.6136 13.2991C25.0248 12.2593 24.6367 10.0313 22.9592 9.54277C21.5603 9.13534 20.7306 7.68057 21.0815 6.25052C21.5022 4.53573 19.7901 3.08153 18.1949 3.79874C16.8645 4.39686 15.3051 3.82233 14.6658 2.49853C13.8992 0.911157 11.6643 0.911158 10.8977 2.49853ZM14.9392 2.36326C14.0614 0.545579 11.5021 0.54558 10.6243 2.36326C10.0569 3.53819 8.67285 4.04811 7.4921 3.51725C5.66541 2.69599 3.70491 4.36118 4.18672 6.32476C4.49815 7.594 3.76171 8.88517 2.52011 9.24677C0.599264 9.8062 0.154857 12.3574 1.77084 13.5481C2.81539 14.3178 3.07115 15.786 2.34965 16.8709C1.23344 18.5493 2.51306 20.7928 4.50708 20.6535C5.79599 20.5634 6.92428 21.5217 7.06048 22.8223C7.27119 24.8342 9.67609 25.7203 11.1151 24.3161C12.0453 23.4085 13.5182 23.4085 14.4484 24.3161C15.8874 25.7203 18.2923 24.8342 18.503 22.8223C18.6392 21.5217 19.7675 20.5634 21.0564 20.6535C23.0504 20.7928 24.33 18.5493 23.2138 16.8709C22.4923 15.786 22.7481 14.3178 23.7926 13.5481C25.4086 12.3574 24.9642 9.8062 23.0434 9.24677C21.8018 8.88517 21.0653 7.594 21.3768 6.32476C21.8586 4.36118 19.8981 2.69599 18.0714 3.51725C16.8906 4.04811 15.5066 3.53819 14.9392 2.36326Z" fill="#D5FF03"/>
<path fill-rule="evenodd" clip-rule="evenodd" d="M10.174 2.14583C11.2338 -0.0486079 14.3296 -0.0486087 15.3894 2.14583C15.8405 3.08008 16.9358 3.47959 17.8663 3.06122C20.0863 2.06312 22.4398 4.09011 21.8623 6.44391C21.6136 7.45758 22.2031 8.4813 23.1831 8.76672C25.5063 9.44333 26.0345 12.5173 24.0892 13.9507C23.2609 14.561 23.0553 15.7298 23.6301 16.594C24.969 18.6073 23.4423 21.3214 21.0215 21.1522C20.0067 21.0813 19.1089 21.8364 19.0002 22.8743C18.747 25.2922 15.8441 26.3767 14.0991 24.674C13.3631 23.9559 12.2002 23.9559 11.4643 24.674C9.71921 26.3767 6.81636 25.2922 6.56314 22.8743C6.45444 21.8364 5.55668 21.0813 4.54187 21.1522C2.12104 21.3214 0.59431 18.6073 1.93325 16.594C2.50802 15.7298 2.30248 14.561 1.47418 13.9507C-0.471098 12.5173 0.0570111 9.44333 2.38023 8.76672C3.36024 8.4813 3.94978 7.45758 3.70106 6.44391C3.12351 4.09011 5.47705 2.06312 7.69706 3.06122C8.6276 3.47959 9.72282 3.08008 10.174 2.14583ZM14.2155 2.71597C13.6309 1.50535 11.9325 1.50535 11.3478 2.71597C10.5923 4.28043 8.74407 4.96538 7.1635 4.25477C5.96158 3.7144 4.64255 4.80681 4.96755 6.13137C5.38116 7.817 4.40451 9.53921 2.74399 10.0228C1.46891 10.3942 1.16451 12.0994 2.24644 12.8966C3.63959 13.9231 3.97798 15.8768 3.01832 17.3198C2.26628 18.4506 3.13666 19.9393 4.45121 19.8474C6.17753 19.7268 7.67932 21.0098 7.86027 22.7377C8.00177 24.0888 9.60401 24.6641 10.5547 23.7365C11.797 22.5243 13.7664 22.5243 15.0086 23.7365C15.9593 24.6641 17.5616 24.0888 17.7031 22.7377C17.884 21.0098 19.3858 19.7268 21.1121 19.8474C22.4267 19.9393 23.2971 18.4506 22.545 17.3198C21.5854 15.8768 21.9238 13.9231 23.3169 12.8966C24.3988 12.0994 24.0944 10.3942 22.8194 10.0228C21.1588 9.53921 20.1822 7.817 20.5958 6.13137C20.9208 4.80681 19.6018 3.7144 18.3999 4.25477C16.8193 4.96539 14.971 4.28043 14.2155 2.71597Z" fill="#D5FF03"/>
<path fill-rule="evenodd" clip-rule="evenodd" d="M12.7817 16.992C14.7983 16.992 16.433 15.3372 16.433 13.296C16.433 11.2547 14.7983 9.59999 12.7817 9.59999C10.7652 9.59999 9.13045 11.2547 9.13045 13.296C9.13045 15.3372 10.7652 16.992 12.7817 16.992ZM12.7817 17.3C14.9663 17.3 16.7373 15.5073 16.7373 13.296C16.7373 11.0846 14.9663 9.29199 12.7817 9.29199C10.5971 9.29199 8.82617 11.0846 8.82617 13.296C8.82617 15.5073 10.5971 17.3 12.7817 17.3Z" fill="#D5FF03"/>
<path fill-rule="evenodd" clip-rule="evenodd" d="M8.32617 13.296C8.32617 10.8143 10.3153 8.79199 12.7817 8.79199C15.2482 8.79199 17.2373 10.8143 17.2373 13.296C17.2373 15.7777 15.2482 17.8 12.7817 17.8C10.3153 17.8 8.32617 15.7777 8.32617 13.296ZM12.7817 10.1C11.047 10.1 9.63045 11.5251 9.63045 13.296C9.63045 15.0669 11.047 16.492 12.7817 16.492C14.5164 16.492 15.933 15.0669 15.933 13.296C15.933 11.5251 14.5164 10.1 12.7817 10.1Z" fill="#D5FF03"/>
</svg>
