<svg width="22" height="19" viewBox="0 0 22 19" fill="none" xmlns="http://www.w3.org/2000/svg">
<path d="M21.1844 0.995545L21.1845 0.995631C21.2696 1.06705 21.3336 1.16006 21.369 1.265C21.4044 1.36998 21.4096 1.48247 21.384 1.59023L21.384 1.59025L17.5763 17.6296C17.5762 17.6298 17.5762 17.63 17.5761 17.6302C17.5274 17.8404 17.4228 18.034 17.2732 18.192C17.1235 18.35 16.9341 18.4668 16.7241 18.5312C16.5967 18.5706 16.4638 18.5909 16.3302 18.5914L16.329 18.5914C16.0216 18.5903 15.7244 18.4811 15.4927 18.2832C15.4926 18.2831 15.4925 18.283 15.4924 18.283L11.5673 14.9478L9.04034 17.4835C9.04031 17.4836 9.04028 17.4836 9.04025 17.4836L9.04015 17.4837L8.93391 17.3778C8.82925 17.4832 8.70376 17.5671 8.56493 17.6246C8.4261 17.682 8.27676 17.7117 8.12581 17.7121L21.1844 0.995545ZM21.1844 0.995545C21.0989 0.923936 20.9953 0.87672 20.8849 0.858475C20.7746 0.840246 20.6612 0.851535 20.5568 0.891271C20.5567 0.891302 20.5566 0.891333 20.5566 0.891364L1.55859 8.09469C1.55855 8.09471 1.55851 8.09472 1.55847 8.09474C1.33519 8.17874 1.14521 8.33112 1.01785 8.52986L1.14414 8.61079L1.01785 8.52986C0.890404 8.72872 0.832834 8.96289 0.854448 9.19696C0.87606 9.431 0.975562 9.6512 1.13701 9.82455C1.29833 9.99775 1.51268 10.1148 1.74743 10.159L21.1844 0.995545ZM1.90087 9.11008L1.90126 9.11006L1.89991 9.09931C1.89883 9.09068 1.90075 9.0816 1.90603 9.07341C1.91139 9.06512 1.92019 9.05789 1.93174 9.05403L1.93177 9.05414L1.93738 9.05202L17.1686 3.27677L7.25483 10.1605L1.94878 9.15133L1.94881 9.15117L1.94183 9.15018C1.92951 9.14843 1.91907 9.1427 1.9119 9.13506C1.90482 9.12753 1.90132 9.11863 1.90087 9.11008ZM16.553 17.3959L16.5529 17.3962C16.5445 17.4316 16.5267 17.4649 16.5005 17.4925L16.6093 17.5957L16.5005 17.4925C16.4743 17.5201 16.4407 17.541 16.4028 17.5527C16.3648 17.5644 16.3242 17.5663 16.2851 17.5582C16.2461 17.5501 16.2103 17.5323 16.1814 17.5071L16.1801 17.506L8.22439 10.7467L20.0885 2.50919L16.553 17.3959ZM8.17344 16.8282L8.20365 16.9752L8.17344 16.8282C8.12885 16.8374 8.08248 16.8335 8.04042 16.8171C7.99841 16.8008 7.96313 16.773 7.93856 16.738C7.91411 16.7032 7.90119 16.6627 7.90083 16.6216V11.8326L10.7718 14.2699L8.2889 16.7667C8.28884 16.7667 8.28877 16.7668 8.2887 16.7669C8.25794 16.7975 8.21791 16.8191 8.17344 16.8282Z" fill="white" stroke="#F6F6F6" stroke-width="0.3"/>
</svg>
