<svg width="24" height="25" viewBox="0 0 24 25" fill="none" xmlns="http://www.w3.org/2000/svg">
<path fill-rule="evenodd" clip-rule="evenodd" d="M4.5 6.5C5.32843 6.5 6 5.82843 6 5C6 4.17157 5.32843 3.5 4.5 3.5C3.67157 3.5 3 4.17157 3 5C3 5.82843 3.67157 6.5 4.5 6.5ZM4.5 7.5C5.88071 7.5 7 6.38071 7 5C7 3.61929 5.88071 2.5 4.5 2.5C3.11929 2.5 2 3.61929 2 5C2 6.38071 3.11929 7.5 4.5 7.5Z" fill="#F6F6F6"/>
<path d="M16.8654 19.7934C16.5463 20.0669 16.1513 20.2796 15.6803 20.4315C15.2093 20.5683 14.7231 20.6366 14.2217 20.6366C13.0062 20.6366 12.0642 20.31 11.3957 19.6566C10.7272 19.0033 10.3929 18.0689 10.3929 16.8534V10.2215H8.3418V8.42102H10.3929V5.77734H12.5808V8.42102H16.0449V10.2215H12.5808V16.7623C12.5808 17.4156 12.7403 17.917 13.0594 18.2664C13.3936 18.6159 13.8646 18.7906 14.4724 18.7906C15.1409 18.7906 15.7107 18.6007 16.1817 18.2209L16.8654 19.7934Z" fill="#F6F6F6"/>
</svg>
