<svg width="30" height="30" viewBox="0 0 30 30" fill="none" xmlns="http://www.w3.org/2000/svg">
<path d="M3.4375 2.5C3.4375 2.25136 3.33873 2.0129 3.16291 1.83709C2.9871 1.66127 2.74864 1.5625 2.5 1.5625C2.25136 1.5625 2.0129 1.66127 1.83709 1.83709C1.66127 2.0129 1.5625 2.25136 1.5625 2.5V15.0712C1.5625 17.9575 1.5625 20.2188 1.8 21.9837C2.0425 23.7887 2.55 25.2138 3.6675 26.3325C4.78625 27.4513 6.21125 27.9575 8.0175 28.2C9.78125 28.4375 12.0425 28.4375 14.9288 28.4375H27.5C27.7486 28.4375 27.9871 28.3387 28.1629 28.1629C28.3387 27.9871 28.4375 27.7486 28.4375 27.5C28.4375 27.2514 28.3387 27.0129 28.1629 26.8371C27.9871 26.6613 27.7486 26.5625 27.5 26.5625H15C12.0275 26.5625 9.8925 26.56 8.2675 26.3425C6.66875 26.1275 5.705 25.7175 4.9925 25.0062C4.28125 24.2937 3.8725 23.3312 3.6575 21.7325C3.44 20.1075 3.4375 17.9725 3.4375 15V2.5Z" fill="white"/>
<path d="M24.4848 9.33274C24.564 9.23658 24.6232 9.12561 24.659 9.00632C24.6949 8.88702 24.7065 8.76178 24.6934 8.63792C24.6802 8.51406 24.6426 8.39406 24.5825 8.28493C24.5225 8.1758 24.4413 8.07972 24.3437 8.00232C24.2461 7.92492 24.1341 7.86773 24.0142 7.83411C23.8942 7.80049 23.7688 7.79111 23.6452 7.80651C23.5216 7.82191 23.4023 7.86179 23.2943 7.92381C23.1863 7.98583 23.0917 8.06875 23.0161 8.16774L19.1186 13.0752C18.8124 13.4615 18.6111 13.7127 18.4449 13.8952C18.2824 14.074 18.2074 14.124 18.1724 14.1427C18.0424 14.212 17.8979 14.2497 17.7507 14.2527C17.6034 14.2558 17.4576 14.2241 17.3249 14.1602C17.2899 14.144 17.2124 14.0977 17.0411 13.9265C16.8686 13.7515 16.6561 13.5077 16.3336 13.1352L16.3124 13.1127C16.0161 12.7702 15.7624 12.4777 15.5374 12.2527C15.3074 12.0069 15.0368 11.8027 14.7374 11.649C14.3389 11.4576 13.9009 11.3628 13.4589 11.3724C13.0169 11.3819 12.5834 11.4955 12.1936 11.704C11.9004 11.8702 11.6382 12.0859 11.4186 12.3415C11.2061 12.5765 10.9649 12.879 10.6824 13.2352L6.7661 18.1677C6.62241 18.3632 6.5601 18.6068 6.59226 18.8473C6.62443 19.0877 6.74857 19.3064 6.93859 19.4572C7.1286 19.6081 7.3697 19.6794 7.6112 19.6562C7.85271 19.633 8.0758 19.517 8.2336 19.3327L12.1324 14.4252C12.4386 14.039 12.6399 13.7877 12.8049 13.6052C12.9674 13.4265 13.0424 13.3765 13.0774 13.3577C13.2073 13.2885 13.3518 13.2508 13.499 13.2477C13.6463 13.2447 13.7921 13.2764 13.9249 13.3402C13.9611 13.3565 14.0386 13.4027 14.2086 13.574C14.3824 13.749 14.5936 13.9927 14.9174 14.3652L14.9374 14.3877C15.2349 14.7302 15.4874 15.0227 15.7124 15.2477C15.9436 15.4815 16.1986 15.7002 16.5124 15.8515C16.9108 16.0429 17.3488 16.1376 17.7908 16.1281C18.2328 16.1185 18.6663 16.0049 19.0561 15.7965C19.3489 15.6298 19.6111 15.4142 19.8311 15.159C20.0436 14.924 20.2849 14.6215 20.5686 14.2652L24.4848 9.33274Z" fill="#D5FF03"/>
</svg>
