<svg width="284" height="50" viewBox="0 0 284 50" fill="none" xmlns="http://www.w3.org/2000/svg">
<rect x="0.5" y="0.5" width="283" height="49" rx="9.5" stroke="#F6F6F6"/>
<path d="M18.4375 12.5C18.4375 12.2514 18.3387 12.0129 18.1629 11.8371C17.9871 11.6613 17.7486 11.5625 17.5 11.5625C17.2514 11.5625 17.0129 11.6613 16.8371 11.8371C16.6613 12.0129 16.5625 12.2514 16.5625 12.5V25.0712C16.5625 27.9575 16.5625 30.2188 16.8 31.9837C17.0425 33.7887 17.55 35.2138 18.6675 36.3325C19.7863 37.4513 21.2112 37.9575 23.0175 38.2C24.7812 38.4375 27.0425 38.4375 29.9288 38.4375H42.5C42.7486 38.4375 42.9871 38.3387 43.1629 38.1629C43.3387 37.9871 43.4375 37.7486 43.4375 37.5C43.4375 37.2514 43.3387 37.0129 43.1629 36.8371C42.9871 36.6613 42.7486 36.5625 42.5 36.5625H30C27.0275 36.5625 24.8925 36.56 23.2675 36.3425C21.6687 36.1275 20.705 35.7175 19.9925 35.0062C19.2812 34.2937 18.8725 33.3312 18.6575 31.7325C18.44 30.1075 18.4375 27.9725 18.4375 25V12.5Z" fill="white"/>
<path d="M39.4848 19.3327C39.564 19.2366 39.6232 19.1256 39.659 19.0063C39.6949 18.887 39.7065 18.7618 39.6934 18.6379C39.6802 18.5141 39.6426 18.3941 39.5825 18.2849C39.5225 18.1758 39.4413 18.0797 39.3437 18.0023C39.2461 17.9249 39.1341 17.8677 39.0142 17.8341C38.8942 17.8005 38.7688 17.7911 38.6452 17.8065C38.5216 17.8219 38.4023 17.8618 38.2943 17.9238C38.1863 17.9858 38.0917 18.0688 38.0161 18.1677L34.1186 23.0752C33.8124 23.4615 33.6111 23.7127 33.4449 23.8952C33.2824 24.074 33.2074 24.124 33.1724 24.1427C33.0424 24.212 32.8979 24.2497 32.7507 24.2527C32.6034 24.2558 32.4576 24.2241 32.3249 24.1602C32.2899 24.144 32.2124 24.0977 32.0411 23.9265C31.8686 23.7515 31.6561 23.5077 31.3336 23.1352L31.3124 23.1127C31.0161 22.7702 30.7624 22.4777 30.5374 22.2527C30.3074 22.0069 30.0368 21.8027 29.7374 21.649C29.3389 21.4576 28.9009 21.3628 28.4589 21.3724C28.0169 21.3819 27.5834 21.4955 27.1936 21.704C26.9004 21.8702 26.6382 22.0859 26.4186 22.3415C26.2061 22.5765 25.9649 22.879 25.6824 23.2352L21.7661 28.1677C21.6224 28.3632 21.5601 28.6068 21.5923 28.8473C21.6244 29.0877 21.7486 29.3064 21.9386 29.4572C22.1286 29.6081 22.3697 29.6794 22.6112 29.6562C22.8527 29.633 23.0758 29.517 23.2336 29.3327L27.1324 24.4252C27.4386 24.039 27.6399 23.7877 27.8049 23.6052C27.9674 23.4265 28.0424 23.3765 28.0774 23.3577C28.2073 23.2885 28.3518 23.2508 28.499 23.2477C28.6463 23.2447 28.7921 23.2764 28.9249 23.3402C28.9611 23.3565 29.0386 23.4027 29.2086 23.574C29.3824 23.749 29.5936 23.9927 29.9174 24.3652L29.9374 24.3877C30.2349 24.7302 30.4874 25.0227 30.7124 25.2477C30.9436 25.4815 31.1986 25.7002 31.5124 25.8515C31.9108 26.0429 32.3488 26.1376 32.7908 26.1281C33.2328 26.1185 33.6663 26.0049 34.0561 25.7965C34.3489 25.6298 34.6111 25.4142 34.8311 25.159C35.0436 24.924 35.2849 24.6215 35.5686 24.2652L39.4848 19.3327Z" fill="#D5FF03"/>
<path d="M71.42 18.92H63.22V32H61.9V17.72H71.42V18.92ZM75.7006 32.26C74.2873 32.26 73.2206 31.8 72.5006 30.88H72.1006V36H70.8406V22H72.0606V23.12H72.4606C73.194 22.2 74.274 21.74 75.7006 21.74C77.0606 21.74 78.1406 22.24 78.9406 23.24C79.754 24.2267 80.1606 25.48 80.1606 27C80.1606 28.5333 79.7606 29.7933 78.9606 30.78C78.1606 31.7667 77.074 32.26 75.7006 32.26ZM75.5406 22.86C74.394 22.86 73.534 23.26 72.9606 24.06C72.3873 24.86 72.1006 25.84 72.1006 27C72.1006 28.1733 72.3873 29.16 72.9606 29.96C73.534 30.7467 74.394 31.14 75.5406 31.14C76.6073 31.14 77.434 30.7667 78.0206 30.02C78.6073 29.26 78.9006 28.2533 78.9006 27C78.9006 25.7467 78.6073 24.7467 78.0206 24C77.434 23.24 76.6073 22.86 75.5406 22.86ZM89.3709 32V30.88H88.9709C88.6509 31.2933 88.2043 31.6267 87.6309 31.88C87.0709 32.1333 86.4376 32.26 85.7309 32.26C84.5976 32.26 83.7109 31.9467 83.0709 31.32C82.4309 30.6933 82.1109 29.9333 82.1109 29.04C82.1109 28.1333 82.4109 27.36 83.0109 26.72C83.6243 26.08 84.5709 25.76 85.8509 25.76H89.3309V25.14C89.3309 24.46 89.1109 23.9133 88.6709 23.5C88.2309 23.0733 87.5509 22.86 86.6309 22.86C85.8176 22.86 85.1909 23.0133 84.7509 23.32C84.3109 23.6133 84.0709 24.0333 84.0309 24.58H82.7709C82.8509 23.6867 83.2376 22.9933 83.9309 22.5C84.6243 21.9933 85.5243 21.74 86.6309 21.74C87.8443 21.74 88.8043 22.0333 89.5109 22.62C90.2309 23.2067 90.5909 24.02 90.5909 25.06V32H89.3709ZM85.9109 31.14C86.8576 31.14 87.6643 30.8467 88.3309 30.26C88.9976 29.66 89.3309 28.9067 89.3309 28V26.82H86.1909C85.2843 26.82 84.5843 27.0133 84.0909 27.4C83.6109 27.7733 83.3709 28.2867 83.3709 28.94C83.3709 29.6333 83.5976 30.1733 84.0509 30.56C84.5176 30.9467 85.1376 31.14 85.9109 31.14ZM99.6489 32V36H98.3889V32H98.0289C96.5089 32 95.3222 31.54 94.4689 30.62C93.6156 29.7 93.1889 28.4933 93.1889 27C93.1889 25.5067 93.6156 24.3 94.4689 23.38C95.3222 22.46 96.5089 22 98.0289 22H98.3889V17.46H99.6489V22H99.9889C101.509 22 102.696 22.46 103.549 23.38C104.402 24.3 104.829 25.5067 104.829 27C104.829 28.4933 104.402 29.7 103.549 30.62C102.696 31.54 101.509 32 99.9889 32H99.6489ZM95.3689 24.22C94.7556 24.9533 94.4489 25.88 94.4489 27C94.4489 28.12 94.7556 29.0467 95.3689 29.78C95.9822 30.5133 96.8689 30.88 98.0289 30.88H98.3889V23.12H98.0289C96.8689 23.12 95.9822 23.4867 95.3689 24.22ZM99.6489 30.88H99.9889C101.149 30.88 102.036 30.5133 102.649 29.78C103.262 29.0467 103.569 28.12 103.569 27C103.569 25.88 103.262 24.9533 102.649 24.22C102.036 23.4867 101.149 23.12 99.9889 23.12H99.6489V30.88ZM109.818 32H107.598V22H108.858V30.76H109.258L113.898 22H116.218V32H114.958V23.24H114.558L109.818 32ZM126.51 32L124.21 27.4H120.87V32H119.61V22H120.87V26.28H124.23L126.39 22H127.75L125.31 26.82L127.89 32H126.51ZM132.611 32H130.391V22H131.651V30.76H132.051L136.691 22H139.011V32H137.751V23.24H137.351L132.611 32Z" fill="white"/>
</svg>
