<svg width="23" height="18" viewBox="0 0 23 18" fill="none" xmlns="http://www.w3.org/2000/svg">
<path fill-rule="evenodd" clip-rule="evenodd" d="M21.752 0H0.751953C0.553041 0 0.362276 0.0765657 0.221623 0.212853C0.0809709 0.349141 0.00195312 0.533987 0.00195312 0.726726V16.7147C0.00195312 16.9074 0.0809709 17.0923 0.221623 17.2286C0.362276 17.3649 0.553041 17.4414 0.751953 17.4414H21.752C21.9509 17.4414 22.1416 17.3649 22.2823 17.2286C22.4229 17.0923 22.502 16.9074 22.502 16.7147V0.726726C22.502 0.533987 22.4229 0.349141 22.2823 0.212853C22.1416 0.0765657 21.9509 0 21.752 0ZM1.50195 15.988V1.45345H21.002V15.988H1.50195Z" fill="#F6F6F6"/>
<path fill-rule="evenodd" clip-rule="evenodd" d="M22.2373 1.27904L11.6698 9.99976C11.5338 10.1121 11.3608 10.1738 11.182 10.1735C11.0033 10.1732 10.8305 10.1111 10.6948 9.9983L0.260811 1.27759C0.144661 1.18074 0.0619111 1.05175 0.0236971 0.907962C-0.0145169 0.764177 -0.00636154 0.612499 0.0470656 0.47334C0.100493 0.33418 0.196628 0.214217 0.322535 0.129592C0.448442 0.0449673 0.598079 -0.000258312 0.751311 1.10984e-06H21.7513C21.9045 0.00028625 22.0539 0.0460207 22.1795 0.131053C22.3051 0.216086 22.4008 0.336338 22.4537 0.475637C22.5066 0.614935 22.5143 0.766599 22.4756 0.910228C22.4369 1.05386 22.3537 1.18257 22.2373 1.27904ZM19.7143 1.45345H2.76881L11.1868 8.48962L19.7143 1.45345Z" fill="#F6F6F6"/>
</svg>
