<svg width="89" height="74" viewBox="0 0 89 74" fill="none" xmlns="http://www.w3.org/2000/svg">
<path d="M36.5537 49.0652L36.5537 28.9565L31.6754 28.9565L19.1523 42.4868L19.1523 28.9565L14.3037 28.9565L14.3037 49.0652L19.1523 49.0652L31.6754 35.6211L31.6754 49.0652H36.5537Z" fill="white"/>
<path d="M63.5713 49.109V44.2393H82.1571C84.0321 44.2393 85.6364 44.9364 86.9702 46.3306C88.3233 47.7048 88.9999 49.3679 88.9999 51.3198C88.9999 53.2518 88.3233 54.9149 86.9702 56.3091C85.6364 57.6834 84.0321 58.3705 82.1571 58.3705H68.2975V65.1523H63.5713V53.4709H82.1571C82.7176 53.4709 83.2009 53.2617 83.6068 52.8435C84.0321 52.4053 84.2447 51.8875 84.2447 51.2899C84.2447 50.6924 84.0321 50.1845 83.6068 49.7663C83.2009 49.3281 82.7176 49.109 82.1571 49.109H63.5713Z" fill="white"/>
<path d="M54.5283 44.2393V49.0341H45.4885V64.8306H40.8255V49.0341H31.7856V44.2393H54.5283Z" fill="white"/>
<path d="M35.603 31.5303H30.1963L41.7536 11.2607H47.1603L50.2213 16.6177L53.2536 11.2607H58.6604L70.2177 31.5303H64.8395L55.9713 15.9807L47.1031 31.5303H41.6964L47.5036 21.3376L44.4713 15.9807L35.603 31.5303Z" fill="white"/>
<path d="M29.4017 15.685C29.4017 17.5043 28.7482 19.0268 27.4412 20.2525C26.1341 21.459 24.554 22.0623 22.7007 22.0623H19.0723V29.761H14.3026V22.0623H10.6741C8.80135 22.0623 7.21146 21.459 5.90443 20.2525C4.61691 19.0268 3.97314 17.5043 3.97314 15.685V9.65234H8.74283V15.685C8.74283 16.7957 9.38659 17.3511 10.6741 17.3511H22.7007C23.9688 17.3511 24.6028 16.7957 24.6028 15.685V9.65234H29.4017V15.685Z" fill="white"/>
<path d="M52.4463 33.0221V28.1523H74.6963V33.0221H52.4463ZM52.4463 49.0654V44.1956H74.6963V49.0654H52.4463ZM52.4463 41.0587V36.1591H74.6963V41.0587H52.4463Z" fill="#D5FF03"/>
<path fill-rule="evenodd" clip-rule="evenodd" d="M84.2321 4.82609H4.76786V69.1739H84.2321V4.82609ZM0 0V74H89V0H0Z" fill="white"/>
</svg>
