<svg width="22" height="20" viewBox="0 0 22 20" fill="none" xmlns="http://www.w3.org/2000/svg">
<path d="M1.82957 20C1.82957 20 0 20 0 18.3333C0 16.6667 1.82957 11.6667 10.9774 11.6667C20.1253 11.6667 21.9549 16.6667 21.9549 18.3333C21.9549 20 20.1253 20 20.1253 20H1.82957ZM10.9774 10C12.4331 10 13.8292 9.47322 14.8586 8.53553C15.8879 7.59785 16.4662 6.32608 16.4662 5C16.4662 3.67392 15.8879 2.40215 14.8586 1.46447C13.8292 0.526784 12.4331 0 10.9774 0C9.52174 0 8.12567 0.526784 7.09633 1.46447C6.067 2.40215 5.48872 3.67392 5.48872 5C5.48872 6.32608 6.067 7.59785 7.09633 8.53553C8.12567 9.47322 9.52174 10 10.9774 10Z" fill="#515151"/>
</svg>
