<svg width="15" height="24" viewBox="0 0 15 24" fill="none" xmlns="http://www.w3.org/2000/svg">
<path fill-rule="evenodd" clip-rule="evenodd" d="M1.875 0C1.37772 0 0.900805 0.197544 0.549175 0.549175C0.197544 0.900805 0 1.37772 0 1.875V21.875C0 22.3723 0.197544 22.8492 0.549175 23.2008C0.900805 23.5525 1.37772 23.75 1.875 23.75H13.125C13.6223 23.75 14.0992 23.5525 14.4508 23.2008C14.8025 22.8492 15 22.3723 15 21.875V1.875C15 1.37772 14.8025 0.900805 14.4508 0.549175C14.0992 0.197544 13.6223 0 13.125 0H1.875ZM1.25 1.875C1.25 1.70924 1.31585 1.55027 1.43306 1.43306C1.55027 1.31585 1.70924 1.25 1.875 1.25H3.75V2.5C3.75 2.66576 3.81585 2.82473 3.93306 2.94194C4.05027 3.05915 4.20924 3.125 4.375 3.125H10.625C10.7908 3.125 10.9497 3.05915 11.0669 2.94194C11.1842 2.82473 11.25 2.66576 11.25 2.5V1.25H13.125C13.2908 1.25 13.4497 1.31585 13.5669 1.43306C13.6842 1.55027 13.75 1.70924 13.75 1.875V21.875C13.75 22.0408 13.6842 22.1997 13.5669 22.3169C13.4497 22.4342 13.2908 22.5 13.125 22.5H1.875C1.70924 22.5 1.55027 22.4342 1.43306 22.3169C1.31585 22.1997 1.25 22.0408 1.25 21.875V1.875Z" fill="#515151"/>
</svg>
