<svg width="24" height="25" viewBox="0 0 24 25" fill="none" xmlns="http://www.w3.org/2000/svg">
<g clip-path="url(#clip0_1283_1224)">
<path d="M12.5003 21.7266C12.6376 22.2012 12.2888 22.693 11.797 22.7445C7.95995 23.1276 3.44816 20.9432 1.32092 16.8831C-0.972143 12.5086 -0.228754 7.37349 3.17368 3.88529C6.51892 0.459985 11.614 -0.477828 15.7884 1.5865C19.1908 3.2677 21.2037 6.06399 21.9013 8.98036C22.1301 9.94104 20.7005 10.3928 20.3459 9.47214C20.3116 9.38064 20.2773 9.28343 20.2544 9.1805C19.1165 4.86313 15.3138 2.07257 10.882 2.22696C6.46174 2.38136 2.81342 5.44068 1.91563 9.74662C0.709058 15.5393 5.08361 20.9718 11.0536 21.0861C11.9971 21.1033 12.3402 21.1834 12.5003 21.7323V21.7266Z" fill="#F6F6F6"/>
<path d="M18.8706 10.8502C20.6204 12.9145 22.2731 14.9217 23.4796 17.2776C25.1494 20.5371 22.599 24.6258 18.6934 24.4942C14.8964 24.3627 12.8263 20.4056 14.1244 17.5979C15.1194 15.4535 16.549 13.6293 18.03 11.8223C18.2816 11.5135 18.5561 11.2162 18.8706 10.8445V10.8502ZM18.8706 13.4406C17.5039 15.2076 16.1887 16.7859 15.5997 18.7873C15.1708 20.2455 15.9428 21.778 17.3724 22.4413C18.5904 23.0075 19.7913 22.9102 20.8835 22.1268C21.8327 21.4463 22.4332 20.4628 22.233 19.3077C21.8327 17.026 20.3174 15.3448 18.8649 13.4406H18.8706Z" fill="#F6F6F6"/>
<path d="M7.40531 4.98321C9.10938 4.02824 11.1451 3.83953 13.0436 4.30272C13.2952 4.36562 13.5583 4.42852 13.8213 4.49714C14.2845 4.62295 14.7077 5.49214 14.3417 5.82952C13.8671 6.27556 13.0608 5.96105 12.2831 5.80665C8.47465 5.04039 5.23805 8.05397 5.12368 11.3649C5.09509 12.2513 4.70052 12.7144 3.99716 12.3199C3.74555 12.1769 3.54541 11.7595 3.54541 11.4678C3.54541 8.72302 5.05506 6.30415 7.40531 4.98892V4.98321Z" fill="#F6F6F6"/>
<path d="M17.178 6.4928C17.218 6.72725 16.9264 6.99601 16.7663 7.15613C15.1251 8.80874 13.4725 10.4556 11.8199 12.0968C11.3967 12.5142 10.9564 12.5943 10.5332 12.1025C10.1958 11.7137 10.3331 11.3534 10.6476 11.0332C11.7455 9.91238 12.8492 8.79158 13.9528 7.6765C14.5246 7.10466 15.0679 6.49851 15.6969 5.9953C15.9199 5.81231 16.2573 5.63504 16.5604 5.76085C16.7548 5.8409 17.1094 6.18972 17.178 6.48708V6.4928Z" fill="#F6F6F6"/>
</g>
<defs>
<clipPath id="clip0_1283_1224">
<rect width="24" height="24" fill="white" transform="translate(0 0.5)"/>
</clipPath>
</defs>
</svg>
